<?xml version="1.0" standalone="no"?>
<!DOCTYPE svg PUBLIC "-//W3C//DTD SVG 20010904//EN"
 "http://www.w3.org/TR/2001/REC-SVG-20010904/DTD/svg10.dtd">
<svg version="1.0" xmlns="http://www.w3.org/2000/svg"
 width="512.000000pt" height="512.000000pt" viewBox="0 0 512.000000 512.000000"
 preserveAspectRatio="xMidYMid meet">

<g transform="translate(0.000000,512.000000) scale(0.100000,-0.100000)"
fill="#000000" stroke="none">
<path d="M2330 5109 c-488 -45 -951 -229 -1350 -537 -109 -84 -348 -323 -432
-432 -314 -407 -492 -862 -538 -1370 -56 -630 136 -1269 538 -1790 81 -105
319 -345 427 -430 363 -286 788 -465 1265 -532 143 -20 525 -17 675 6 563 83
1059 331 1455 728 404 405 650 906 732 1488 17 125 17 515 0 640 -84 595 -340
1104 -763 1515 -321 312 -712 533 -1133 640 -297 75 -588 100 -876 74z m-75
-2202 c167 -412 305 -750 308 -753 2 -2 141 335 308 751 l303 755 313 0 313 0
0 -1100 0 -1100 -265 0 -265 0 -2 653 -3 652 -244 -653 -244 -652 -216 2 -216
3 -235 626 c-129 344 -240 636 -247 650 -9 19 -12 -119 -12 -628 l-1 -653
-265 0 -265 0 0 1100 0 1100 316 -2 315 -3 304 -748z"/>
</g>
</svg>
